<?xml version="1.0" encoding="UTF-8"?>
<svg width="32px" height="32px" viewBox="0 0 32 32" version="1.1" xmlns="http://www.w3.org/2000/svg" xmlns:xlink="http://www.w3.org/1999/xlink">
    <title>logo</title>
    <g id="2.-顶部导航下拉框" stroke="none" stroke-width="1" fill="none" fill-rule="evenodd">
        <g id="logo">
            <rect id="矩形备份-4" x="0" y="0" width="32" height="32"></rect>
            <g id="下载备份-3">
                <path d="M7.13733,11.2762 L13.1798,11.2762 L12.3981,14.8517 L12.3967,14.8618 L5.72541,14.8618 C5.41536,14.8618 5.1258,14.7078 4.95267,14.4508 L2.81151,11.2762 L1.6625,9.57248 L0.14873,7.32862 C-0.237078,6.75707 0.17258,5.98657 0.861984,5.98657 L12.5602,5.98657 L12.5602,9.57248 L5.98692,9.57248 L7.13733,11.2762 Z" id="路径" fill="#FF454F"></path>
                <path d="M29.1212,13.2111 L26.78,11.2762 L26.7531,11.2532 L24.7194,9.57246 L20.3807,5.98683 L15.7737,2.17869 L13.4165,0.23085 C12.8371,-0.248113 11.956,0.0566052 11.7961,0.791464 L11.3802,2.70227 L9.88892,9.56657 L13.5492,9.56657 L14.1527,6.80727 L14.3323,5.98683 L14.4426,5.47896 L15.0178,5.98683 L21.0058,11.2762 L15.4827,11.2762 L14.9103,14.155 L14.9016,14.1951 L14.8284,14.565 L14.7683,14.8621 L28.5275,14.8621 C29.4013,14.8621 29.7947,13.7675 29.1212,13.2111 Z" id="路径" fill="#0062FA"></path>
                <path d="M18.2534,14.8621 L17.1145,20.8386 L15.9284,27.0673 C15.8255,27.6086 15.3521,28 14.801,28 L7.95246,28 C6.95189,28 6.20384,27.08 6.40811,26.1004 L8.39719,16.5602 L12.0201,16.5602 L10.3737,24.4545 L12.8336,24.4545 L14.7682,14.8621 L18.2534,14.8621 Z" id="路径" fill="#FFBD2E"></path>
            </g>
        </g>
    </g>
</svg>