<?xml version="1.0" encoding="UTF-8"?>
<svg width="112px" height="32px" viewBox="0 0 112 32" version="1.1" xmlns="http://www.w3.org/2000/svg" xmlns:xlink="http://www.w3.org/1999/xlink">
    <title>logo font b</title>
    <g id="2.-顶部导航下拉框" stroke="none" stroke-width="1" fill="none" fill-rule="evenodd">
        <g id="画板" transform="translate(-52.000000, -16.000000)">
            <g id="logo-font-b" transform="translate(52.000000, 16.000000)">
                <rect id="矩形备份-4" x="0" y="0" width="112" height="32"></rect>
                <path d="M5.82298358,21.6832298 L7.93861527,9.64596273 L11.3533191,9.64596273 L11.7244825,7.57763975 L2.37116345,7.57763975 L2,9.64596273 L5.43326196,9.64596273 L3.31763026,21.6832298 L5.82298358,21.6832298 Z M16.7723055,21.6832298 C20.48394,21.6832298 21.8015703,20.7329193 22.6366881,15.9068323 L23.0449679,13.5403727 C23.2119914,12.6086957 23.2862241,11.826087 23.2862241,11.136646 C23.2862241,8.47204969 21.9500357,7.57763975 18.4054247,7.57763975 L13.5246253,7.57763975 L11.0563883,21.6832298 L16.7723055,21.6832298 Z M16.2712348,19.6149068 L13.9143469,19.6149068 L15.640257,9.64596273 L18.0342612,9.64596273 C20.0385439,9.64596273 20.799429,9.9068323 20.799429,11.5093168 C20.799429,12.0310559 20.7251963,12.6832298 20.5767309,13.5403727 L20.1684511,15.9068323 C19.6302641,19.0559006 19.0549607,19.6149068 16.2712348,19.6149068 Z M30.8579586,21.6832298 L31.6188437,19.8012422 L27.888651,19.8012422 C26.8122769,19.8012422 26.4782298,19.6521739 26.4782298,19 C26.4782298,18.7950311 26.5153462,18.4968944 26.5710207,18.1801242 L26.6638116,17.6024845 L30.7466096,17.6024845 C32.2869379,17.6024845 32.8993576,17.0248447 33.1962884,15.3664596 L33.4561028,13.8944099 C33.5117773,13.5962733 33.5303355,13.2981366 33.5303355,13.0745342 C33.5303355,11.5093168 32.4910778,10.9875776 30.5424697,10.9875776 L29.2805139,10.9875776 C26.5524625,10.9875776 25.4760885,11.5093168 25.0306924,14.0807453 L24.3069236,18.2546584 C24.2326909,18.7018634 24.1770164,19.1677019 24.1770164,19.5590062 C24.1770164,21.068323 25.0306924,21.6832298 27.4432548,21.6832298 L30.8579586,21.6832298 Z M30.152748,15.7950311 L26.9978587,15.7950311 L27.2947894,14.0807453 C27.4989293,12.9627329 27.9072091,12.8509317 28.7608851,12.8509317 L30.0785153,12.8509317 C30.9321913,12.8509317 31.2105639,12.9627329 31.2105639,13.4099379 C31.2105639,13.5403727 31.1920057,13.6708075 31.1548894,13.8944099 L30.9507495,15.1055901 C30.8765168,15.5900621 30.6723769,15.7950311 30.152748,15.7950311 Z M41.9000714,19.484472 L42.1042113,18.310559 C42.2155603,17.6956522 42.289793,17.173913 42.289793,16.7639752 C42.289793,15.7018634 41.751606,15.3850932 40.1184868,15.3850932 L37.8915061,15.3850932 C37.4646681,15.3850932 37.3347609,15.3478261 37.3347609,15.1055901 C37.3347609,15.0124224 37.3533191,14.863354 37.3904354,14.6770186 L37.5389008,13.8385093 C37.668808,13.1118012 37.7987152,13 38.5224839,13 L42.4382584,13 L43.2177016,11.1180124 L38.5224839,11.1180124 C36.4254104,11.1180124 35.8686652,11.3602484 35.4975018,13.5031056 L35.3490364,14.3416149 C35.2376874,14.9565217 35.1634547,15.4782609 35.1634547,15.8881988 C35.1634547,16.9503106 35.7016417,17.2670807 37.3347609,17.2670807 L39.4689507,17.2670807 C39.8957887,17.2670807 40.0256959,17.3043478 40.0256959,17.5465839 C40.0256959,17.6397516 40.0071378,17.7888199 39.9700214,17.9751553 L39.8029979,18.9627329 C39.6730906,19.689441 39.5431834,19.8012422 38.8194147,19.8012422 L34.4211278,19.8012422 L34.7551749,21.6832298 L38.8194147,21.6832298 C41.0092791,21.6832298 41.5660243,21.4223602 41.9000714,19.484472 Z M48.525339,9.38509317 L48.952177,7 L46.5767309,7 L46.1498929,9.38509317 L48.525339,9.38509317 Z M46.3540328,21.6832298 L48.1912919,11.1180124 L45.8900785,11.1180124 L44.0528194,21.6832298 L46.3540328,21.6832298 Z M53.9628837,25 C56.0970735,25 57.1920057,24.4968944 57.6374019,21.9627329 L58.7880086,15.4223602 C58.9550321,14.4720497 59.0292648,13.8571429 59.0292648,13.4285714 C59.0292648,11.6397516 58.0456817,10.9875776 55.6887937,10.9875776 L54.4082798,10.9875776 C51.309065,10.9875776 50.6224126,11.6583851 50.0842256,14.6397516 L49.805853,16.1863354 C49.6388294,17.136646 49.5645967,17.7515528 49.5645967,18.1801242 C49.5645967,19.9689441 50.5481799,20.621118 52.9050678,20.621118 L55.5774447,20.621118 L55.4475375,21.3478261 C55.1798715,22.9245103 54.9122056,23.0885185 53.6051563,23.0988021 L49.6202712,23.0993789 L49.9543183,25 L53.9628837,25 Z M55.9114918,18.7391304 L53.4989293,18.7391304 C52.2740899,18.7391304 51.8843683,18.5900621 51.8843683,17.7888199 C51.8843683,17.4534161 51.9771592,16.9130435 52.1070664,16.1863354 L52.385439,14.6397516 C52.6266952,13.2795031 52.8493933,12.8509317 54.2598144,12.8509317 L55.0949322,12.8509317 C56.3012134,12.8509317 56.7094932,13 56.7094932,13.8012422 C56.7094932,14.136646 56.6352605,14.6024845 56.4867951,15.4037267 L55.9114918,18.7391304 Z M62.6481085,21.6832298 L64.1513205,13.0372671 L66.8608137,13.0372671 C67.7330478,13.0372671 68.0114204,13.1677019 68.0114204,13.8198758 C68.0114204,14.0993789 67.9557459,14.5652174 67.8258387,15.2919255 L66.6937901,21.6832298 L68.9950036,21.6832298 L70.1084939,15.2919255 C70.2940757,14.2111801 70.4054247,13.5217391 70.4054247,13.0186335 C70.4054247,11.6770186 69.6630978,11.1180124 67.2876517,11.1180124 L62.1841542,11.1180124 L60.3468951,21.6832298 L62.6481085,21.6832298 Z M79.1277659,21.6832298 L79.9628837,16.931677 L83.4703783,16.931677 C86.1798715,16.931677 87.1077802,16.1118012 87.6088508,13.2608696 L87.9243398,11.4906832 C88.0913633,10.5031056 88.1841542,9.85093168 88.1841542,9.36645963 C88.1841542,7.9689441 87.3119201,7.57763975 85.3076374,7.57763975 L79.1092077,7.57763975 L76.6409707,21.6832298 L79.1277659,21.6832298 Z M83.1734475,14.9378882 L80.3154889,14.9378882 L81.2433976,9.57142857 L84.2127052,9.57142857 C85.2519629,9.57142857 85.6045682,9.68322981 85.6045682,10.2608696 C85.6045682,10.484472 85.5303355,10.9689441 85.4375446,11.4906832 L85.2705211,12.4782609 C84.9550321,14.3416149 84.6581014,14.9378882 83.1734475,14.9378882 Z M90.5410421,21.6832298 L91.7844397,14.6583851 C92.0256959,13.2608696 92.3040685,13.0372671 93.640257,13.0372671 L95.3290507,13.0372671 L96.1270521,11.1180124 L93.5660243,11.1180124 C90.6523911,11.1180124 89.9842969,11.6397516 89.4832263,14.5279503 L88.2212705,21.6832298 L90.5410421,21.6832298 Z M100.933619,21.8136646 C104.032834,21.8136646 104.756602,21.1428571 105.276231,18.1614907 L105.758744,15.4223602 C105.925767,14.4720497 106,13.8571429 106,13.4285714 C106,11.6397516 105.016417,10.9875776 102.659529,10.9875776 L101.379015,10.9875776 C98.2798001,10.9875776 97.5560314,11.6583851 97.0364026,14.6397516 L96.5538901,17.378882 C96.3868665,18.3291925 96.3126338,18.9440994 96.3126338,19.3726708 C96.3126338,21.1614907 97.296217,21.8136646 99.6531049,21.8136646 L100.933619,21.8136646 Z M101.082084,19.931677 L100.246966,19.931677 C99.0221271,19.931677 98.6324054,19.7826087 98.6324054,18.9813665 C98.6324054,18.6459627 98.7066381,18.1801242 98.8551035,17.378882 L99.337616,14.6397516 C99.5788722,13.2795031 99.8201285,12.8509317 101.23055,12.8509317 L102.065667,12.8509317 C103.271949,12.8509317 103.680228,13 103.680228,13.8012422 C103.680228,14.136646 103.605996,14.6024845 103.45753,15.4037267 L102.975018,18.1428571 C102.733762,19.5031056 102.492505,19.931677 101.082084,19.931677 Z" id="TDesignPro备份-2" fill="#FFFFFF" fill-rule="nonzero"></path>
            </g>
        </g>
    </g>
</svg>